<?xml version="1.0" encoding="UTF-8"?>
<svg width="1200pt" height="1200pt" version="1.1" viewBox="0 0 1200 1200" xmlns="http://www.w3.org/2000/svg">
 <path d="m1073.6 550.41h-423.99v-423.99c0-27.383-22.199-49.586-49.586-49.586-27.383 0-49.586 22.199-49.586 49.586v424l-423.99-0.003907c-27.383 0-49.586 22.199-49.586 49.586 0 27.383 22.199 49.586 49.586 49.586h424v424c0 27.383 22.199 49.586 49.586 49.586 27.383 0 49.586-22.199 49.586-49.586l-0.003906-424h424c27.383 0 49.586-22.199 49.586-49.586-0.003907-27.383-22.191-49.586-49.59-49.586z"/>
</svg>
